<svg xmlns="http://www.w3.org/2000/svg" width="258.36" height="35" viewBox="0 0 258.36 35"><rect class="svg__rect" x="0" y="0" width="117.03" height="35" fill="#EA1F1F"/><rect class="svg__rect" x="115.03" y="0" width="143.33" height="35" fill="#FF5555"/><path class="svg__text" d="M17.33 22L14.22 22L14.22 13.47L17.14 13.47Q18.59 13.47 19.34 14.05Q20.10 14.63 20.10 15.78L20.10 15.78Q20.10 16.36 19.78 16.83Q19.47 17.30 18.86 17.56L18.86 17.56Q19.55 17.75 19.93 18.26Q20.31 18.78 20.31 19.51L20.31 19.51Q20.31 20.71 19.53 21.36Q18.76 22 17.33 22L17.33 22ZM15.70 18.15L15.70 20.82L17.35 20.82Q18.04 20.82 18.44 20.47Q18.83 20.13 18.83 19.51L18.83 19.51Q18.83 18.18 17.47 18.15L17.47 18.15L15.70 18.15ZM15.70 14.66L15.70 17.06L17.15 17.06Q17.84 17.06 18.23 16.75Q18.62 16.43 18.62 15.86L18.62 15.86Q18.62 15.23 18.26 14.95Q17.90 14.66 17.14 14.66L17.14 14.66L15.70 14.66ZM24.64 19.16L24.64 19.16L24.64 13.47L26.12 13.47L26.12 19.18Q26.12 20.03 26.55 20.48Q26.98 20.93 27.83 20.93L27.83 20.93Q29.54 20.93 29.54 19.13L29.54 19.13L29.54 13.47L31.02 13.47L31.02 19.17Q31.02 20.53 30.15 21.32Q29.28 22.12 27.83 22.12L27.83 22.12Q26.36 22.12 25.50 21.33Q24.64 20.55 24.64 19.16ZM37.15 22L35.67 22L35.67 13.47L37.15 13.47L37.15 22ZM47.32 22L41.96 22L41.96 13.47L43.44 13.47L43.44 20.82L47.32 20.82L47.32 22ZM53.12 14.66L50.49 14.66L50.49 13.47L57.25 13.47L57.25 14.66L54.59 14.66L54.59 22L53.12 22L53.12 14.66ZM68.37 22L66.40 13.47L67.87 13.47L69.20 19.88L70.82 13.47L72.07 13.47L73.68 19.89L74.99 13.47L76.46 13.47L74.49 22L73.07 22L71.45 15.77L69.79 22L68.37 22ZM82.10 22L80.62 22L80.62 13.47L82.10 13.47L82.10 22ZM88.59 14.66L85.95 14.66L85.95 13.47L92.72 13.47L92.72 14.66L90.06 14.66L90.06 22L88.59 22L88.59 14.66ZM97.96 22L96.48 22L96.48 13.47L97.96 13.47L97.96 17.02L101.77 17.02L101.77 13.47L103.25 13.47L103.25 22L101.77 22L101.77 18.21L97.96 18.21L97.96 22Z" fill="#FFFFFF"/><path class="svg__text" d="M131.60 22L129.22 22L129.22 13.60L133.06 13.60Q134.20 13.60 135.04 13.98Q135.88 14.35 136.34 15.06Q136.79 15.76 136.79 16.71L136.79 16.71Q136.79 17.62 136.37 18.30Q135.94 18.98 135.15 19.36L135.15 19.36L136.96 22L134.42 22L132.89 19.77L131.60 19.77L131.60 22ZM131.60 15.47L131.60 17.93L132.92 17.93Q133.65 17.93 134.02 17.61Q134.39 17.29 134.39 16.71L134.39 16.71Q134.39 16.12 134.02 15.79Q133.65 15.47 132.92 15.47L132.92 15.47L131.60 15.47ZM148.33 22L141.58 22L141.58 13.60L148.17 13.60L148.17 15.44L143.94 15.44L143.94 16.85L147.67 16.85L147.67 18.63L143.94 18.63L143.94 20.17L148.33 20.17L148.33 22ZM152.54 21.24L152.54 21.24L153.32 19.49Q153.89 19.86 154.63 20.09Q155.37 20.32 156.09 20.32L156.09 20.32Q157.46 20.32 157.47 19.64L157.47 19.64Q157.47 19.28 157.08 19.11Q156.69 18.93 155.82 18.74L155.82 18.74Q154.87 18.53 154.23 18.30Q153.60 18.06 153.14 17.55Q152.69 17.03 152.69 16.16L152.69 16.16Q152.69 15.39 153.11 14.77Q153.53 14.15 154.36 13.79Q155.20 13.43 156.41 13.43L156.41 13.43Q157.23 13.43 158.04 13.62Q158.84 13.80 159.46 14.17L159.46 14.17L158.73 15.93Q157.52 15.28 156.39 15.28L156.39 15.28Q155.68 15.28 155.36 15.49Q155.04 15.70 155.04 16.04L155.04 16.04Q155.04 16.37 155.42 16.54Q155.81 16.71 156.66 16.89L156.66 16.89Q157.62 17.10 158.25 17.33Q158.88 17.56 159.34 18.07Q159.80 18.58 159.80 19.46L159.80 19.46Q159.80 20.21 159.38 20.83Q158.97 21.44 158.13 21.80Q157.28 22.17 156.08 22.17L156.08 22.17Q155.06 22.17 154.10 21.92Q153.14 21.67 152.54 21.24ZM171.12 22L164.38 22L164.38 13.60L170.97 13.60L170.97 15.44L166.74 15.44L166.74 16.85L170.47 16.85L170.47 18.63L166.74 18.63L166.74 20.17L171.12 20.17L171.12 22ZM178.26 22L175.93 22L175.93 13.60L177.89 13.60L181.59 18.07L181.59 13.60L183.92 13.60L183.92 22L181.97 22L178.26 17.52L178.26 22ZM190.88 15.48L188.29 15.48L188.29 13.60L195.82 13.60L195.82 15.48L193.25 15.48L193.25 22L190.88 22L190.88 15.48ZM202.38 22L200.19 22L200.19 13.60L202.14 13.60L205.10 18.45L207.98 13.60L209.93 13.60L209.95 22L207.77 22L207.75 17.55L205.59 21.17L204.53 21.17L202.38 17.67L202.38 22ZM221.86 22L215.12 22L215.12 13.60L221.71 13.60L221.71 15.44L217.47 15.44L217.47 16.85L221.20 16.85L221.20 18.63L217.47 18.63L217.47 20.17L221.86 20.17L221.86 22ZM229.00 22L226.67 22L226.67 13.60L228.62 13.60L232.33 18.07L232.33 13.60L234.66 13.60L234.66 22L232.71 22L229.00 17.52L229.00 22ZM241.61 15.48L239.03 15.48L239.03 13.60L246.55 13.60L246.55 15.48L243.99 15.48L243.99 22L241.61 22L241.61 15.48Z" fill="#FFFFFF" x="128.03"/></svg>