<svg xmlns="http://www.w3.org/2000/svg" width="213.24" height="35" viewBox="0 0 213.24 35"><rect class="svg__rect" x="0" y="0" width="94.41" height="35" fill="#A806C1"/><rect class="svg__rect" x="92.41" y="0" width="120.83" height="35" fill="#DE67F0"/><path class="svg__text" d="M16.51 22L13.46 13.47L15.08 13.47L17.22 20.14L19.39 13.47L21.02 13.47L17.95 22L16.51 22ZM30.55 22L24.97 22L24.97 13.47L30.51 13.47L30.51 14.66L26.45 14.66L26.45 17.02L29.96 17.02L29.96 18.19L26.45 18.19L26.45 20.82L30.55 20.82L30.55 22ZM36.23 22L34.74 22L34.74 13.47L37.74 13.47Q39.22 13.47 40.02 14.13Q40.82 14.79 40.82 16.05L40.82 16.05Q40.82 16.90 40.41 17.48Q40.00 18.06 39.26 18.37L39.26 18.37L41.18 21.92L41.18 22L39.59 22L37.88 18.71L36.23 18.71L36.23 22ZM36.23 14.66L36.23 17.52L37.75 17.52Q38.50 17.52 38.92 17.15Q39.34 16.77 39.34 16.11L39.34 16.11Q39.34 15.43 38.95 15.05Q38.56 14.68 37.79 14.66L37.79 14.66L36.23 14.66ZM44.79 19.42L44.79 19.42L46.27 19.42Q46.27 20.15 46.75 20.55Q47.23 20.95 48.13 20.95L48.13 20.95Q48.90 20.95 49.29 20.63Q49.68 20.32 49.68 19.80L49.68 19.80Q49.68 19.24 49.28 18.94Q48.89 18.63 47.86 18.32Q46.82 18.01 46.22 17.63L46.22 17.63Q45.05 16.90 45.05 15.72L45.05 15.72Q45.05 14.69 45.89 14.02Q46.73 13.35 48.07 13.35L48.07 13.35Q48.96 13.35 49.66 13.68Q50.36 14.01 50.76 14.61Q51.15 15.22 51.15 15.96L51.15 15.96L49.68 15.96Q49.68 15.29 49.26 14.91Q48.84 14.54 48.06 14.54L48.06 14.54Q47.33 14.54 46.93 14.85Q46.53 15.16 46.53 15.71L46.53 15.71Q46.53 16.18 46.97 16.50Q47.40 16.81 48.39 17.10Q49.39 17.40 49.99 17.78Q50.60 18.16 50.88 18.65Q51.16 19.13 51.16 19.79L51.16 19.79Q51.16 20.86 50.34 21.49Q49.53 22.12 48.13 22.12L48.13 22.12Q47.20 22.12 46.42 21.77Q45.65 21.43 45.22 20.83Q44.79 20.22 44.79 19.42ZM57.01 22L55.54 22L55.54 13.47L57.01 13.47L57.01 22ZM61.56 18.00L61.56 18.00L61.56 17.52Q61.56 16.28 62.00 15.32Q62.44 14.37 63.25 13.86Q64.05 13.35 65.09 13.35Q66.14 13.35 66.94 13.85Q67.75 14.35 68.19 15.29Q68.63 16.23 68.63 17.48L68.63 17.48L68.63 17.96Q68.63 19.21 68.20 20.16Q67.77 21.10 66.96 21.61Q66.15 22.12 65.11 22.12L65.11 22.12Q64.07 22.12 63.26 21.61Q62.45 21.10 62.00 20.17Q61.56 19.23 61.56 18.00ZM63.04 17.46L63.04 17.96Q63.04 19.36 63.59 20.13Q64.13 20.90 65.11 20.90L65.11 20.90Q66.09 20.90 66.62 20.15Q67.15 19.40 67.15 17.96L67.15 17.96L67.15 17.51Q67.15 16.09 66.61 15.34Q66.08 14.58 65.09 14.58L65.09 14.58Q64.13 14.58 63.59 15.33Q63.05 16.09 63.04 17.46L63.04 17.46ZM74.58 22L73.10 22L73.10 13.47L74.58 13.47L78.39 19.54L78.39 13.47L79.87 13.47L79.87 22L78.38 22L74.58 15.95L74.58 22Z" fill="#FFFFFF"/><path class="svg__text" d="M106.17 17.80L106.17 17.80Q106.17 16.45 106.64 15.46Q107.11 14.46 107.95 13.95Q108.80 13.43 109.87 13.43L109.87 13.43Q110.94 13.43 111.78 13.95Q112.62 14.46 113.10 15.46Q113.57 16.45 113.57 17.80L113.57 17.80Q113.57 19.15 113.10 20.15Q112.62 21.14 111.78 21.65Q110.95 22.17 109.87 22.17L109.87 22.17Q108.80 22.17 107.95 21.65Q107.11 21.14 106.64 20.15Q106.17 19.16 106.17 17.80ZM108.55 17.80L108.55 17.80Q108.55 19.06 108.91 19.64Q109.26 20.22 109.87 20.22L109.87 20.22Q110.48 20.22 110.83 19.64Q111.19 19.06 111.19 17.80L111.19 17.80Q111.19 16.54 110.83 15.96Q110.48 15.38 109.87 15.38L109.87 15.38Q109.26 15.38 108.91 15.96Q108.55 16.54 108.55 17.80ZM117.78 20.75L117.78 20.75Q117.78 20.15 118.17 19.78Q118.56 19.41 119.15 19.41L119.15 19.41Q119.75 19.41 120.14 19.78Q120.52 20.15 120.52 20.75L120.52 20.75Q120.52 21.34 120.13 21.72Q119.74 22.11 119.15 22.11L119.15 22.11Q118.57 22.11 118.18 21.72Q117.78 21.34 117.78 20.75ZM125.97 15.44L124.41 15.44L124.41 13.60L128.35 13.60L128.35 22L125.97 22L125.97 15.44ZM133.01 20.75L133.01 20.75Q133.01 20.15 133.40 19.78Q133.79 19.41 134.38 19.41L134.38 19.41Q134.97 19.41 135.36 19.78Q135.74 20.15 135.74 20.75L135.74 20.75Q135.74 21.34 135.35 21.72Q134.96 22.11 134.38 22.11L134.38 22.11Q133.80 22.11 133.40 21.72Q133.01 21.34 133.01 20.75ZM141.20 15.44L139.63 15.44L139.63 13.60L143.57 13.60L143.57 22L141.20 22L141.20 15.44ZM151.98 19.46L148.48 19.46L148.48 17.71L151.98 17.71L151.98 19.46ZM161.42 22L156.88 22L156.88 13.60L161.18 13.60Q162.79 13.60 163.63 14.19Q164.47 14.79 164.47 15.79L164.47 15.79Q164.47 16.39 164.18 16.87Q163.88 17.34 163.34 17.62L163.34 17.62Q164.06 17.87 164.47 18.41Q164.88 18.94 164.88 19.70L164.88 19.70Q164.88 20.80 163.99 21.40Q163.10 22 161.42 22L161.42 22ZM159.24 18.58L159.24 20.28L161.23 20.28Q162.48 20.28 162.48 19.43L162.48 19.43Q162.48 18.58 161.23 18.58L161.23 18.58L159.24 18.58ZM159.24 15.31L159.24 16.94L160.87 16.94Q162.07 16.94 162.07 16.12L162.07 16.12Q162.07 15.31 160.87 15.31L160.87 15.31L159.24 15.31ZM176.34 22L169.59 22L169.59 13.60L176.18 13.60L176.18 15.44L171.95 15.44L171.95 16.85L175.68 16.85L175.68 18.63L171.95 18.63L171.95 20.17L176.34 20.17L176.34 22ZM182.93 15.48L180.35 15.48L180.35 13.60L187.87 13.60L187.87 15.48L185.31 15.48L185.31 22L182.93 22L182.93 15.48ZM193.66 22L191.24 22L194.95 13.60L197.29 13.60L201.00 22L198.54 22L197.88 20.37L194.32 20.37L193.66 22ZM196.10 15.93L195.02 18.61L197.18 18.61L196.10 15.93Z" fill="#FFFFFF" x="105.41"/></svg>